<mxfile host="65bd71144e" scale="1" border="0">
    <diagram id="6hGFLwfOUW9BJ-s0fimq" name="Page-1">
        <mxGraphModel dx="1096" dy="715" grid="1" gridSize="10" guides="1" tooltips="1" connect="1" arrows="1" fold="1" page="1" pageScale="1" pageWidth="827" pageHeight="1169" math="0" shadow="0">
            <root>
                <mxCell id="0"/>
                <mxCell id="1" parent="0"/>
                <mxCell id="41" value="Hello 123 XXX" style="rounded=0;whiteSpace=wrap;html=1;" parent="1" vertex="1">
                    <mxGeometry x="110" y="190" width="120" height="60" as="geometry"/>
                </mxCell>
            </root>
        </mxGraphModel>
    </diagram>
    <diagram id="NDbqaBDdeuva_EtJI3ZI" name="Page-2">
        <mxGraphModel dx="1096" dy="715" grid="1" gridSize="10" guides="1" tooltips="1" connect="1" arrows="1" fold="1" page="1" pageScale="1" pageWidth="850" pageHeight="1100" math="0" shadow="0">
            <root>
                <mxCell id="g6Xm4N9dErYCmi6_g6sK-0"/>
                <mxCell id="g6Xm4N9dErYCmi6_g6sK-1" parent="g6Xm4N9dErYCmi6_g6sK-0"/>
                <mxCell id="g6Xm4N9dErYCmi6_g6sK-2" value="page 2 XXX" style="rounded=1;whiteSpace=wrap;html=1;" parent="g6Xm4N9dErYCmi6_g6sK-1" vertex="1">
                    <mxGeometry x="220" y="260" width="120" height="60" as="geometry"/>
                </mxCell>
            </root>
        </mxGraphModel>
    </diagram>
</mxfile>